<svg width="45" height="42" viewBox="0 0 45 42" fill="none" xmlns="http://www.w3.org/2000/svg">
<path d="M34.1292 13.3936C34.1292 14.7882 33.6995 16.4487 32.9113 18.2958C32.1289 20.1293 31.0314 22.0594 29.786 23.9695C27.4238 27.5923 24.6064 31.0284 22.5868 33.4638C20.4482 30.9129 17.6651 27.316 15.3618 23.6405C14.149 21.7051 13.0858 19.7741 12.3195 17.9814C11.5452 16.1698 11.1167 14.5966 11.0811 13.3508C10.9014 7.0615 16.201 1.86987 22.6055 1.86987C28.9699 1.86987 34.1292 7.02923 34.1292 13.3936Z" stroke="#73C5FF" stroke-width="3"/>
<circle cx="22.6042" cy="13.7618" r="4.22675" stroke="#73C5FF" stroke-width="3"/>
<path d="M27.5407 28.1736H35.8664C36.3436 28.1736 36.7852 28.4264 37.0268 28.838L40.2431 34.316M10.3202 40.3199L16.603 30.2307C17.1612 29.3343 16.5167 28.1736 15.4607 28.1736H9.59191C9.12218 28.1736 8.68644 28.4186 8.44228 28.8199L2.60505 38.4132C2.05939 39.31 2.70493 40.4584 3.75469 40.4584H41.4988C42.5391 40.4584 43.186 39.3285 42.6593 38.4314L40.2431 34.316M40.2431 34.316H30.7917C30.3 34.316 29.8475 34.5842 29.6114 35.0154L26.8077 40.1352" stroke="#73C5FF" stroke-width="3"/>
</svg>
